<?xml version="1.0" encoding="utf-8"?>
<!-- Generator: Adobe Illustrator 23.0.1, SVG Export Plug-In . SVG Version: 6.00 Build 0)  -->
<svg version="1.1" id="Layer_1" xmlns="http://www.w3.org/2000/svg" xmlns:xlink="http://www.w3.org/1999/xlink" x="0px" y="0px"
	 viewBox="0 0 69.1 76.5" style="enable-background:new 0 0 69.1 76.5;" xml:space="preserve">

<g id="bin" transform="translate(-607 -471.468)">
	<path id="Path_2655" class="st0" d="M617.8,532.4c0,4.4,3.5,7.9,7.9,7.9h31.6c4.4,0,7.9-3.5,7.9-7.9v-33c0-3.6-2.9-6.6-6.6-6.6
		h-34.3c-3.6,0-6.6,2.9-6.6,6.6L617.8,532.4z"/>
	<path id="Path_2656" class="st0" d="M633.6,479.1c0,1.1-0.9,2-2,2l0,0h-15.8c-1.1,0-2,0.9-2,2v4c0,1.1,0.9,2,2,2l0,0h51.4
		c1.1,0,2-0.9,2-2l0,0v-4c0-1.1-0.9-2-2-2l0,0h-15.8c-1.1,0-2-0.9-2-2l0,0"/>
</g>
</svg>
