<?xml version="1.0" encoding="utf-8"?>
<!-- Generator: Adobe Illustrator 23.0.1, SVG Export Plug-In . SVG Version: 6.00 Build 0)  -->
<svg version="1.1" id="Capa_1" xmlns="http://www.w3.org/2000/svg" xmlns:xlink="http://www.w3.org/1999/xlink" x="0px" y="0px"
	 viewBox="0 0 423.1 423.1" style="enable-background:new 0 0 423.1 423.1;" xml:space="preserve">
<g>
	<g>
		<path d="M343.7,27.3c-13.4-6.1-29.1-3.7-39.9,6l-8.8,7.8l-17-15.2c-14.1-12.7-35.4-12.7-49.5,0L211.5,41l-16.9-15.1
			c-14.1-12.7-35.4-12.7-49.5,0l-17,15.2l-8.8-7.8c-7.4-6.6-16.9-9.9-26.8-9.3c-9.9,0.6-18.9,5-25.5,12.4
			c-6.1,6.9-9.4,15.7-9.4,24.7v300.6c-0.1,20.4,16.4,37.2,36.9,37.3c0,0,0,0,0,0c9.2,0,18-3.3,24.8-9.3l8.8-7.8l17,15.2
			c6.8,6.1,15.6,9.5,24.8,9.5c9.2,0,17.9-3.4,24.8-9.5l16.9-15.1l16.9,15.1c7.1,6.3,15.9,9.5,24.8,9.5c8.9,0,17.7-3.2,24.8-9.5
			l17-15.2l8.8,7.8c7.4,6.6,16.9,9.8,26.8,9.3c9.9-0.6,18.9-5,25.5-12.4c6.1-6.9,9.4-15.7,9.4-24.7V61.3
			C365.5,46.6,357,33.3,343.7,27.3z M320.5,344.5l-9.6-8.5c-9.2-8.1-22.9-8-32,0.1l-25.7,22.9l-25.6-22.9c-4.6-4.1-10.3-6.1-16-6.1
			c-5.7,0-11.5,2-16.1,6.1l-25.6,22.9l-25.6-22.9c-4.4-4-10.2-6.2-16.1-6.2c-5.9,0-11.6,2.2-16,6.1l-9.6,8.5V78.5l9.6,8.5
			c9.1,8.1,22.9,8,32-0.1l25.7-23l25.6,22.9c9.2,8.2,23,8.2,32.1,0L253.2,64l25.6,22.9c9.1,8.2,22.9,8.3,32,0.1l9.6-8.5V344.5z"/>
	</g>
</g>
<g>
	<g>
		<path d="M234.2,156.6c0,10.1-8.2,18.3-18.3,18.3h-91.2c-10.1,0-18.3-8.2-18.3-18.3c0-10.1,8.2-18.3,18.3-18.3h91.2
			C226,138.3,234.2,146.5,234.2,156.6z"/>
	</g>
</g>
<g>
	<g>
		<path d="M316.7,266.5c0,10.1-8.2,18.3-18.3,18.3H124.7c-10.1,0-18.3-8.2-18.3-18.3c0-10.1,8.2-18.3,18.3-18.3h173.6
			C308.5,248.2,316.7,256.4,316.7,266.5z"/>
	</g>
</g>
<g>
	<g>
		<path d="M316.7,211.5c0,10.1-8.2,18.3-18.3,18.3H124.7c-10.1,0-18.3-8.2-18.3-18.3c0-10.1,8.2-18.3,18.3-18.3h173.6
			C308.5,193.2,316.7,201.4,316.7,211.5z"/>
	</g>
</g>
</svg>
