<?xml version="1.0" encoding="utf-8"?>
<!-- Generator: Adobe Illustrator 23.0.1, SVG Export Plug-In . SVG Version: 6.00 Build 0)  -->
<svg version="1.1" id="Layer_1" xmlns="http://www.w3.org/2000/svg" xmlns:xlink="http://www.w3.org/1999/xlink" x="0px" y="0px"
	 viewBox="0 0 43.6 43.6" style="enable-background:new 0 0 43.6 43.6;" xml:space="preserve">
<path style="fill:#FFFFFF;" d="M42.5,42.3c-0.8,0.8-1.8,1.2-2.9,1.2c-1,0-2-0.4-2.8-1.2L21.8,27.6L7.2,42.4
	c-0.8,0.8-1.8,1.2-2.9,1.2c-1,0-2-0.4-2.8-1.2C0,41-0.1,38.4,1.5,36.8L16.1,22L1.2,7.4c-1.6-1.6-1.6-4.1,0-5.7
	c1.5-1.6,4.1-1.6,5.7,0l14.9,14.6L36.5,1.2c1.6-1.6,4.1-1.6,5.7,0c1.6,1.5,1.6,4.1,0,5.7L27.4,21.9l15.1,14.8
	C44,38.2,44.1,40.8,42.5,42.3z"/>
</svg>
