<?xml version="1.0" encoding="utf-8"?>
<!-- Generator: Adobe Illustrator 23.0.1, SVG Export Plug-In . SVG Version: 6.00 Build 0)  -->
<svg version="1.1" id="Capa_1" xmlns="http://www.w3.org/2000/svg" xmlns:xlink="http://www.w3.org/1999/xlink" x="0px" y="0px"
	 viewBox="0 0 512 512" style="enable-background:new 0 0 512 512;" xml:space="preserve">
<g>
	<g>
		<g>
			<path d="M291.2,447.6c0,19.8-16.1,35.9-35.9,35.9H98.5c-39,0-70.8-31.7-70.8-70.8V99.3c0-39,31.7-70.8,70.8-70.8h156.8
				c19.8,0,35.9,16.1,35.9,35.9c0,19.8-16.1,35.9-35.9,35.9H99.6v311.3h155.7C275.1,411.7,291.2,427.8,291.2,447.6z"/>
		</g>
	</g>
</g>
<g>
	<g>
		<g>
			<path d="M484.2,256c0,9.5-3.9,18.8-10.7,25.5L367.6,386.1c-6.7,6.7-15.7,10.3-25.2,10.3c-9.7,0-18.7-3.8-25.5-10.7
				c-13.9-14.1-13.8-36.9,0.3-50.8l43.6-43H203c-19.8,0-35.9-16.1-35.9-35.9c0-19.8,16.1-35.9,35.9-35.9h157.7l-43.6-43
				c-6.8-6.7-10.6-15.7-10.7-25.3c-0.1-9.6,3.6-18.6,10.4-25.5c6.8-6.8,15.8-10.6,25.4-10.7c0.1,0,0.2,0,0.2,0
				c9.5,0,18.5,3.7,25.2,10.4l105.9,104.5C480.4,237.3,484.2,246.3,484.2,256z"/>
		</g>
	</g>
</g>
</svg>
