<?xml version="1.0" encoding="utf-8"?>
<!-- Generator: Adobe Illustrator 23.0.1, SVG Export Plug-In . SVG Version: 6.00 Build 0)  -->
<svg version="1.1" id="Layer_1" xmlns="http://www.w3.org/2000/svg" xmlns:xlink="http://www.w3.org/1999/xlink" x="0px" y="0px"
	 viewBox="0 0 856.5 857.2" style="enable-background:new 0 0 856.5 857.2;" xml:space="preserve">
<g id="phepha" transform="translate(-143.491 -321.578)">
	<g id="corona" transform="translate(143.491 322.491)">
		<path style="fill:#274E31;" d="M428.3,152C276,152,152.6,275.4,152.6,427.7S276,703.3,428.3,703.3s275.6-123.4,275.6-275.6
			C703.7,275.5,580.4,152.2,428.3,152z"/>
		<path style="fill:#274E31;" d="M302.2,62.9l2.2-0.6l15.6,58.1c15.8-5.6,32-9.9,48.5-13l-15.6-58.1l2.2-0.6
			c13.2-4.1,20.7-18.2,16.5-31.4C367.7,4.8,354.8-2.6,342,0.3l-52.9,14.2c-13.2,4.2-20.6,18.3-16.4,31.5
			C276.7,58.3,289.5,65.7,302.2,62.9L302.2,62.9z"/>
		<path style="fill:#274E31;" d="M136.7,174.8l1.6-1.6l42.6,42.6c10.9-12.7,22.8-24.6,35.5-35.5l-42.6-42.6l1.6-1.6
			c10.2-9.3,11-25.2,1.6-35.5c-9.3-10.2-25.2-11-35.5-1.6c-0.6,0.5-1.1,1.1-1.6,1.6l-38.7,38.7c-9.3,10.2-8.6,26.1,1.6,35.5
			C112.4,183.5,127.1,183.5,136.7,174.8z"/>
		<path style="fill:#274E31;" d="M18.6,372.2c13.4,3.6,27.1-4.4,30.7-17.7l0.6-2.2l58.1,15.6c3.1-16.5,7.4-32.7,13-48.5
			l-58.1-15.6l0.6-2.2c3-13.6-5.6-26.9-19.2-29.9c-12.7-2.8-25.4,4.6-29.3,16.9L0.9,341.5C-2.7,354.8,5.2,368.6,18.6,372.2
			L18.6,372.2z"/>
		<path style="fill:#274E31;" d="M62.9,551.5L121,536c-5.6-15.8-9.9-32-13-48.5l-58.1,15.6l-0.6-2.2
			c-4.2-13.2-18.3-20.6-31.5-16.4c-12.4,3.9-19.8,16.7-17,29.4L15,566.7c3,13.5,16.4,22.1,30,19.1c13.5-3,22.1-16.4,19.1-30
			c-0.2-0.7-0.3-1.4-0.6-2.1L62.9,551.5z"/>
		<path style="fill:#274E31;" d="M180.9,639.5l-42.6,42.6l-1.6-1.6c-9.3-10.2-25.2-11-35.5-1.6s-11,25.2-1.6,35.5
			c0.5,0.6,1.1,1.1,1.6,1.6l38.7,38.7c10.2,9.3,26.1,8.6,35.5-1.6c8.7-9.6,8.7-24.3,0-33.9l-1.6-1.6l42.6-42.6
			C203.7,664.1,191.8,652.2,180.9,639.5z"/>
		<path style="fill:#274E31;" d="M355,806.6l-2.2-0.6l15.6-58.1c-16.5-3.1-32.7-7.4-48.5-13L304.4,793l-2.2-0.6
			c-13.5-3-27,5.5-30,19.1c-2.8,12.7,4.5,25.5,17,29.4l52.8,14.1c13.5,3,27-5.5,30-19.1C374.8,823.3,367.5,810.5,355,806.6
			L355,806.6z"/>
		<path style="fill:#274E31;" d="M554.3,792.5l-2.2,0.6L536.6,735c-15.8,5.6-32,9.9-48.5,13l15.6,58.1l-2.2,0.6
			c-13.5,3-22.1,16.4-19.1,30c3,13.5,16.4,22.1,30,19.1c0.7-0.2,1.4-0.3,2.1-0.6l52.8-14.1c13.5-3,22.1-16.4,19.1-30
			c-3-13.5-16.4-22.1-30-19.1C555.7,792,555,792.2,554.3,792.5L554.3,792.5z"/>
		<path style="fill:#274E31;" d="M719.8,680.6l-1.6,1.6l-42.6-42.6c-10.9,12.7-22.8,24.6-35.5,35.5l42.6,42.6l-1.6,1.6
			c-9.3,10.2-8.6,26.1,1.6,35.5c9.6,8.7,24.3,8.7,33.9,0l38.7-38.7c9.3-10.2,8.6-26.1-1.6-35.5C744.1,671.8,729.4,671.8,719.8,680.6
			L719.8,680.6z"/>
		<path style="fill:#274E31;" d="M837.9,483.2c-13.4-3.6-27.1,4.4-30.7,17.7l-0.6,2.2l-58.1-15.6c-3.1,16.5-7.4,32.7-13,48.5
			l58.1,15.6l-0.6,2.2c-4.2,13.2,3.2,27.3,16.4,31.5c13.2,4.2,27.3-3.2,31.5-16.4c0.2-0.7,0.4-1.4,0.6-2.1l14.1-52.8
			C859.3,500.5,851.3,486.8,837.9,483.2z"/>
		<path style="fill:#274E31;" d="M793.6,303.8l-58.1,15.6c5.6,15.8,9.9,32,13,48.5l58.1-15.6l0.6,2.2
			c4.2,13.2,18.3,20.6,31.5,16.4c12.4-3.9,19.8-16.7,17-29.4l-14.2-52.8c-3-13.5-16.4-22.1-30-19.1c-13.5,3-22.1,16.4-19.1,30
			c0.2,0.7,0.3,1.4,0.6,2.1L793.6,303.8z"/>
		<path style="fill:#274E31;" d="M675.6,215.8l42.6-42.6l1.6,1.6c10.2,9.3,26.1,8.6,35.5-1.6c8.7-9.6,8.7-24.3,0-33.9l-38.7-38.7
			c-9.3-10.2-25.2-11-35.5-1.6s-11,25.2-1.6,35.5c0.5,0.6,1.1,1.1,1.6,1.6l1.6,1.6l-42.6,42.6C652.8,191.2,664.7,203.1,675.6,215.8z
			"/>
		<path style="fill:#274E31;" d="M501.5,48.7l2.2,0.6l-15.6,58.1c16.5,3.1,32.7,7.4,48.5,13l15.6-58.1l2.2,0.6
			c13.5,3,27-5.5,30-19.1c2.8-12.7-4.5-25.5-17-29.4L514.5,0.3c-13.2-4.2-27.3,3.2-31.5,16.4s3.2,27.3,16.4,31.5
			C500.1,48.4,500.8,48.6,501.5,48.7z"/>
	</g>
	<g id="pehpha" transform="translate(170.38 344.578)">
		<g transform="matrix(1, 0, 0, 1, -26.89, -23)">
			<path style="fill:#B37B22;" d="M526.9,361c1.8,10.2,3.2,20.4,5.4,30.5c4,15.4,5.8,31.2,5.3,47.1c-1.1,22.2-6,44-14.5,64.6
				c-5.5,12.6-12.1,24.7-19.8,36.2c-1.6,2.9-4.8,4.6-8.1,4.3c-16-0.4-31.6-4.7-45.6-12.4c-3.9-2.1-4.6-4-1.4-7.4
				c30.7-32,44.4-76.6,37.1-120.3c-2.3-13.6-7.1-26.7-14.4-38.5c-7.2-12.6-15.1-24.7-23.9-36.2c-2.3-3-3.9-5.8-0.8-9.3
				c9.9-11.5,18.7-24,29.2-35c2.1,0.1,4.1,1.3,5.3,3c10.2,13.5,21.1,26.5,30.1,40.9c0.3,0.6,0.5,1.3,0.7,2L526.9,361z"/>
		</g>
		<g transform="matrix(1, 0, 0, 1, -26.89, -23)">
			<path style="fill:#B37B22;" d="M373.6,283.5c9.2,11.4,18.2,23.2,27.8,34.3c3.4,2.8,3.9,7.7,1.1,11.1
				c-0.3,0.3-0.5,0.6-0.8,0.9c-14.1,17.5-26.1,36.5-35.8,56.8c-8.6,21.9-10.8,45.8-6.2,68.9c3.1,24.1,13,46.7,28.6,65.3
				c3.3,3.9,3.1,6-1.8,8.2c-14.8,5.9-30.6,8.9-46.5,9c-4,0.2-5.3-2.6-6.8-5.1c-13.3-22.1-21.7-46.8-24.8-72.4
				c-3.1-32.9,1.2-66.2,12.8-97.2c0.6-1.5,0.7-3.2,0.4-4.7c7.2-8.4,12.9-18.1,16.9-28.4c1.5-8.2,8.1-13.4,12.5-19.8
				c5.2-7.7,11.4-14.6,16.6-22.4C368.9,285.7,370.4,283.4,373.6,283.5L373.6,283.5z"/>
		</g>
		<g transform="matrix(1, 0, 0, 1, -26.89, -23)">
			<path style="fill:#FFF3A1;" d="M413.8,613.6c2-4.2-2.3-4-3.9-5c-15.6-9-30-19.9-42.9-32.5c-1.1-1.1-2.3-2.3-3.8-3.9
				c18-5.2,35.4-12.6,51.6-22.1c2-1.3,4.6-1.2,6.4,0.2c16.1,10.2,33.3,18.5,51.3,24.8c-6.7,6.6-14,12.5-21.9,17.7
				c-9.2,6.4-18.9,12.1-29,17c-1.6,0.8-3.9,1-2.9,3.7L413.8,613.6z"/>
		</g>
		<g transform="matrix(1, 0, 0, 1, -26.89, -23)">
			<path style="fill:#FFF4A1;" d="M477,428.4c-1.6,42.4-22.3,81.9-56.3,107.3c-1.3,1.6-3.5,1.8-5.1,0.6
				c-0.3-0.2-0.6-0.5-0.8-0.8c-52.9-54.2-67.1-136.2-5.3-196.1c4.7-4.6,9.3-9.2,13.9-13.9c1.8-1.7,3.2-3.1,5.7-0.6
				C458.6,351.4,475.9,388.8,477,428.4z"/>
		</g>
		<g transform="matrix(1, 0, 0, 1, -26.89, -23)">
			<path style="fill:#FFF3A1;" d="M426.2,304.9c-14.3,0.1-25.9-11.4-26-25.6c0,0,0,0,0,0c0-0.2,0-0.5,0-0.7
				c0.2-14.6,12.2-26.2,26.7-26c14.6,0.2,26.2,12.2,26,26.7l0,0l0,0c-0.1,14.3-11.7,25.8-26,25.7L426.2,304.9z"/>
		</g>
		<path style="fill:#2C5531;" d="M375.8,454.3c2.5,0,5.1,0,7.6,0c1.8,0,3.1,0.7,3,2.8c-0.1,2-1,2.9-3,2.9c-5.5,0-11.1,0-16.6,0
			c-1.2,0.2-2.4-0.7-2.6-1.9c0-0.2,0-0.4,0-0.6c-0.2-2,0.5-3.2,2.6-3.2C369.8,454.3,372.8,454.4,375.8,454.3L375.8,454.3z"/>
		<path style="fill:#2C5531;" d="M376.2,439.3h7c2.1,0,3.7,0.4,3.7,3s-1.5,3-3.6,2.9c-4.9-0.1-9.8,0-14.6,0
			c-2,0-3.8-0.2-3.8-2.9s1.7-3,3.7-3L376.2,439.3L376.2,439.3z"/>
		<path style="fill:#2C5531;" d="M379.8,360.1h7.6c1.8,0,3.1,0.2,3.1,2.6c0,2.1-0.6,3-2.7,3h-16.7c-2.2,0-2.7-1.1-2.8-3
			c0-2.3,1.3-2.7,3.1-2.7C374.2,360.2,377,360.1,379.8,360.1z"/>
		<path style="fill:#2C5531;" d="M416.8,374.7c2.5,0,5.1,0,7.6,0c1.9,0,3.1,0.8,3,2.9c0,2.1-1.3,2.7-3.2,2.7c-5.3,0-10.7,0-16,0
			c-1.7,0-3.3,0.1-3.3-2.4c0-2.5,1.1-3.4,3.4-3.3C411.2,374.7,414,374.7,416.8,374.7z"/>
		<path style="fill:#274E31;" d="M412.1,431.9c-2.7-1.6-9.6,3.3-9.4-3.2c0.1-5.2,6.5-1.6,9.9-2.3c3-0.4,6.1-0.4,9.1-0.1
			c1.5,0,2.7,0.3,2.7,2.3c0,2-0.4,3.3-2.6,3.3C418.8,431.9,415.7,431.9,412.1,431.9z"/>
		<path style="fill:#2C5531;" d="M379.5,352.2h-8.4c-1.5,0-2.7-0.5-2.8-2.3c-0.1-1.8,0.6-3.3,2.6-3.3c5.5-0.1,11.2-0.1,16.7,0
			c2,0,2.8,1.3,2.8,3.2c0,2.4-1.7,2.5-3.3,2.5C384.6,352.2,382.1,352.2,379.5,352.2z"/>
		<path style="fill:#2C5531;" d="M375.5,431.9h-7.7c-2.1,0-2.9-1.1-2.9-3.1c-0.1-2.4,1.5-2.5,3.3-2.5h15.4
			c1.7,0,3.3,0.1,3.2,2.5c0,2.4-1.3,3.2-3.6,3.1C380.7,431.8,378.1,431.9,375.5,431.9L375.5,431.9z"/>
		<path style="fill:#2C5531;" d="M413.7,439.6c2.8,0,5.5,0,8.3,0c1.8,0,2.3,1.2,2.3,2.8c0,1.5-0.7,2.6-2.4,2.7
			c-5.8,0-11.6,0-17.3,0c-1.6,0-2.4-1.1-2.4-2.7c-0.2-1.3,0.7-2.5,2-2.7c0,0,0,0,0,0c0.1,0,0.3,0,0.4,0
			C407.7,439.5,410.7,439.6,413.7,439.6z"/>
		<path style="fill:#2C5531;" d="M416.9,365.8c-2.5,0-5.1-0.1-7.6,0c-2.5,0.1-3.1-1.1-3.3-3.3c-0.2-2.7,1.7-2.3,3.2-2.3
			c5.1,0,10.2,0,15.3,0c1.7,0,3.3,0,3.4,2.4s-1,3.3-3.3,3.3C422,365.8,419.4,365.9,416.9,365.8L416.9,365.8z"/>
		<path style="fill:#2C5531;" d="M378.3,380.2h-7c-1.7,0-3.3-0.2-3.3-2.5c-0.2-1.4,0.8-2.8,2.3-3c0.3,0,0.5,0,0.8,0
			c5.4,0,10.7,0,16.1,0c2.1,0,2.7,1.5,2.6,3.3c-0.1,1.8-1.6,2-3,2.1C383.8,380.3,381,380.2,378.3,380.2z"/>
		<path style="fill:#2C5531;" d="M416.4,352.1c-2.5,0-5.1,0-7.6,0c-1.5,0-2.7-0.6-2.8-2.4c-0.1-2,0.8-3.2,2.8-3.2
			c5.3-0.1,10.7-0.1,16,0c1.5-0.2,2.9,0.9,3.1,2.4c0,0.2,0,0.4,0,0.5c0,2.2-1.2,2.8-3.1,2.8h-8.4L416.4,352.1z"/>
		<path style="fill:#2C5531;" d="M412.8,460h-7.7c-1.8,0-3.3-0.3-3.3-2.6c0-1.9,0.7-3.1,2.8-3.1c5.4,0,10.8,0,16.1,0
			c1.9,0,3,0.8,2.9,3c-0.1,2.2-1.1,2.7-3.1,2.7C417.9,459.9,415.4,460,412.8,460L412.8,460z"/>
	</g>
</g>
</svg>
