<?xml version="1.0" encoding="utf-8"?>
<!-- Generator: Adobe Illustrator 23.0.1, SVG Export Plug-In . SVG Version: 6.00 Build 0)  -->
<svg version="1.1" id="Layer_1" xmlns="http://www.w3.org/2000/svg" xmlns:xlink="http://www.w3.org/1999/xlink" x="0px" y="0px"
	 viewBox="0 0 512 512" style="enable-background:new 0 0 512 512;" xml:space="preserve">
<g>
	<g>
		<g>
			<path d="M256,10.5c-73.8,0-133.8,60-133.8,133.8c0,73.8,60,133.8,133.8,133.8c73.8,0,133.8-60,133.8-133.8
				C389.8,70.6,329.8,10.5,256,10.5z M256,216.2c-39.6,0-71.8-32.2-71.8-71.8c0-39.6,32.2-71.8,71.8-71.8s71.8,32.2,71.8,71.8
				C327.8,184,295.6,216.2,256,216.2z"/>
		</g>
	</g>
</g>
<g>
	<g>
		<g>
			<path d="M406,336c-34-34.6-79.2-53.6-127.2-53.6h-45.7c-48,0-93.2,19-127.2,53.6c-33.8,34.3-52.4,79.6-52.4,127.5
				c0,23.4,19,42.4,42.4,42.4H416c23.4,0,42.4-19,42.4-42.4C458.4,415.5,439.8,370.2,406,336z M233.2,344.4h45.7
				c31.3,0,60.7,12.5,83,35.1c17.5,17.7,28.9,40.3,32.9,64.4H117.2c4-24.2,15.5-46.7,32.9-64.4C172.4,356.8,201.9,344.4,233.2,344.4
				z"/>
		</g>
	</g>
</g>
</svg>
